Normalized EMG Linear Envelopes
nRows=282
nColumns=4

endheader
time	 med_gas_r	  soleus_r	 tib_ant_r	
4.09147	  0.110073	  0.124345	  0.038539	
4.12474	  0.109171	  0.121522	  0.038054	
4.158	  0.108115	  0.118758	  0.037689	
4.19126	  0.107417	  0.116546	  0.037406	
4.22453	  0.107399	  0.115077	  0.037202	
4.25779	  0.108018	  0.114144	  0.037099	
4.29106	  0.108967	  0.113614	  0.037057	
4.32432	  0.109974	  0.113612	  0.037029	
4.35758	  0.110857	  0.113995	  0.037035	
4.39085	  0.111651	  0.114852	  0.037109	
4.42411	  0.112415	  0.116543	  0.037270	
4.45738	  0.113290	  0.119055	  0.037535	
4.49064	  0.114778	  0.121706	  0.037903	
4.5239	  0.117558	  0.123913	  0.038245	
4.55717	  0.121891	  0.125624	  0.038597	
4.59043	  0.127238	  0.127009	  0.039021	
4.6237	  0.132744	  0.128325	  0.039506	
4.65696	  0.137337	  0.129916	  0.039871	
4.69022	  0.139885	  0.131818	  0.039993	
4.72349	  0.139987	  0.133673	  0.039997	
4.75675	  0.138030	  0.134842	  0.039922	
4.79002	  0.134917	  0.134848	  0.039642	
4.82328	  0.131182	  0.133367	  0.039201	
4.85654	  0.127312	  0.130241	  0.038675	
4.88981	  0.124081	  0.126091	  0.038190	
4.92307	  0.122100	  0.121522	  0.037837	
4.95634	  0.121253	  0.117203	  0.037567	
4.9896	  0.121224	  0.113741	  0.037311	
5.02286	  0.121735	  0.111443	  0.037149	
5.05613	  0.122070	  0.110536	  0.037087	
5.08939	  0.121963	  0.111218	  0.037111	
5.12266	  0.121316	  0.113027	  0.037268	
5.15592	  0.120410	  0.115118	  0.037491	
5.18918	  0.119554	  0.116745	  0.037702	
5.22245	  0.118909	  0.117863	  0.037896	
5.25571	  0.118870	  0.118724	  0.038005	
5.28898	  0.119783	  0.118816	  0.037996	
5.32224	  0.121567	  0.117691	  0.037989	
5.3555	  0.123419	  0.115793	  0.038066	
5.38877	  0.124185	  0.113744	  0.038131	
5.42203	  0.123687	  0.111829	  0.038173	
5.4553	  0.123718	  0.109727	  0.038130	
5.48856	  0.125700	  0.107515	  0.037757	
5.52182	  0.129923	  0.105682	  0.036982	
5.55509	  0.136174	  0.104341	  0.035854	
5.58835	  0.143586	  0.103136	  0.034527	
5.62162	  0.150688	  0.101943	  0.033493	
5.65488	  0.156221	  0.100746	  0.033503	
5.68814	  0.161400	  0.099872	  0.035508	
5.72141	  0.167192	  0.100108	  0.040764	
5.75467	  0.172804	  0.102094	  0.050495	
5.78794	  0.176206	  0.105818	  0.065581	
5.8212	  0.175596	  0.110744	  0.086267	
5.85446	  0.171890	  0.115995	  0.111887	
5.88773	  0.167163	  0.120367	  0.140322	
5.92099	  0.162890	  0.123336	  0.168509	
5.95426	  0.159249	  0.125653	  0.195274	
5.98752	  0.156397	  0.128219	  0.220156	
6.02078	  0.156518	  0.131594	  0.241489	
6.05405	  0.161622	  0.135611	  0.258755	
6.08731	  0.173148	  0.139781	  0.273381	
6.12058	  0.192586	  0.143332	  0.286361	
6.15384	  0.223440	  0.145566	  0.299589	
6.1871	  0.267804	  0.146283	  0.313325	
6.22037	  0.324967	  0.145668	  0.329491	
6.25363	  0.391478	  0.143734	  0.349909	
6.2869	  0.461545	  0.140455	  0.372729	
6.32016	  0.521769	  0.136783	  0.395345	
6.35342	  0.554247	  0.133861	  0.414658	
6.38669	  0.565880	  0.132809	  0.429057	
6.41995	  0.575036	  0.133864	  0.440032	
6.45322	  0.594021	  0.136621	  0.451018	
6.48648	  0.624987	  0.140924	  0.465075	
6.51974	  0.658692	  0.145969	  0.482221	
6.55301	  0.678065	  0.150428	  0.501944	
6.58627	  0.683385	  0.154234	  0.523193	
6.61954	  0.686529	  0.158369	  0.546449	
6.6528	  0.693929	  0.162914	  0.572301	
6.68606	  0.709386	  0.167652	  0.596337	
6.71933	  0.724624	  0.172570	  0.610999	
6.75259	  0.728034	  0.176631	  0.616272	
6.78586	  0.729197	  0.178733	  0.612558	
6.81912	  0.737717	  0.178357	  0.601935	
6.85238	  0.759325	  0.175621	  0.587820	
6.88565	  0.790001	  0.171637	  0.569761	
6.91891	  0.814944	  0.167135	  0.551189	
6.95218	  0.834951	  0.163032	  0.537090	
6.98544	  0.855486	  0.160629	  0.528760	
7.0187	  0.876252	  0.160771	  0.527211	
7.05197	  0.886752	  0.163104	  0.531552	
7.08523	  0.885291	  0.166656	  0.538829	
7.1185	  0.876469	  0.170823	  0.546520	
7.15176	  0.861729	  0.175026	  0.552935	
7.18502	  0.836108	  0.179522	  0.559906	
7.21829	  0.804539	  0.184708	  0.568565	
7.25155	  0.782985	  0.189675	  0.576576	
7.28482	  0.783619	  0.192646	  0.582881	
7.31808	  0.805085	  0.192284	  0.586781	
7.35134	  0.829592	  0.188491	  0.586803	
7.38461	  0.845843	  0.182627	  0.583208	
7.41787	  0.859073	  0.176175	  0.579276	
7.45114	  0.871533	  0.170411	  0.577588	
7.4844	  0.871548	  0.166813	  0.576588	
7.51766	  0.858225	  0.166022	  0.573568	
7.55093	  0.850989	  0.167287	  0.567550	
7.58419	  0.861652	  0.169119	  0.561168	
7.61746	  0.885396	  0.170244	  0.556240	
7.65072	  0.908448	  0.170389	  0.552503	
7.68398	  0.931238	  0.169974	  0.550452	
7.71725	  0.956063	  0.169544	  0.547184	
7.75051	  0.974788	  0.169346	  0.542277	
7.78378	  0.969659	  0.169135	  0.538530	
7.81704	  0.947805	  0.169302	  0.537074	
7.8503	  0.925091	  0.170370	  0.537333	
7.88357	  0.904688	  0.172804	  0.537504	
7.91683	  0.873707	  0.176518	  0.538247	
7.9501	  0.833310	  0.180595	  0.539609	
7.98336	  0.803292	  0.184869	  0.540642	
8.01662	  0.792420	  0.190052	  0.540392	
8.04989	  0.795671	  0.196170	  0.538049	
8.08315	  0.800049	  0.202963	  0.530866	
8.11642	  0.800468	  0.209730	  0.516915	
8.14968	  0.808618	  0.215045	  0.499443	
8.18294	  0.826981	  0.218247	  0.483763	
8.21621	  0.848935	  0.218696	  0.472003	
8.24947	  0.860592	  0.215161	  0.465349	
8.28274	  0.866139	  0.208113	  0.464848	
8.316	  0.874362	  0.198953	  0.469503	
8.34926	  0.886002	  0.189651	  0.478038	
8.38253	  0.890182	  0.181913	  0.489578	
8.41579	  0.889801	  0.176890	  0.502172	
8.44906	  0.894397	  0.174345	  0.514700	
8.48232	  0.903819	  0.172911	  0.529082	
8.51558	  0.902791	  0.172637	  0.545353	
8.54885	  0.889846	  0.174022	  0.561561	
8.58211	  0.876909	  0.177038	  0.574458	
8.61538	  0.872370	  0.182038	  0.581217	
8.64864	  0.872164	  0.188534	  0.583303	
8.6819	  0.863149	  0.195112	  0.582481	
8.71517	  0.853039	  0.200282	  0.582257	
8.74843	  0.853329	  0.203283	  0.584662	
8.7817	  0.864569	  0.204235	  0.588800	
8.81496	  0.875549	  0.203619	  0.593467	
8.84822	  0.872984	  0.201889	  0.599280	
8.88149	  0.868069	  0.199735	  0.607025	
8.91475	  0.874535	  0.197644	  0.614047	
8.94802	  0.890120	  0.196127	  0.617586	
8.98128	  0.901510	  0.194521	  0.616464	
9.01454	  0.897766	  0.192041	  0.609009	
9.04781	  0.888861	  0.189221	  0.594287	
9.08107	  0.880395	  0.185953	  0.573934	
9.11434	  0.867220	  0.181560	  0.550513	
9.1476	  0.840297	  0.176576	  0.526397	
9.18086	  0.811786	  0.172199	  0.504536	
9.21413	  0.796976	  0.169522	  0.487686	
9.24739	  0.805995	  0.168818	  0.475949	
9.28066	  0.838319	  0.169340	  0.468903	
9.31392	  0.875584	  0.170140	  0.469306	
9.34718	  0.897177	  0.170537	  0.477599	
9.38045	  0.908224	  0.169949	  0.493855	
9.41371	  0.916400	  0.168595	  0.516396	
9.44698	  0.913964	  0.167564	  0.540871	
9.48024	  0.894195	  0.167300	  0.563799	
9.5135	  0.872785	  0.167758	  0.580789	
9.54677	  0.860217	  0.168363	  0.587967	
9.58003	  0.850987	  0.169084	  0.585528	
9.6133	  0.840145	  0.170416	  0.576428	
9.64656	  0.838996	  0.173144	  0.565008	
9.67982	  0.849570	  0.177467	  0.556687	
9.71309	  0.859438	  0.182704	  0.553765	
9.74635	  0.856616	  0.188034	  0.555553	
9.77962	  0.851415	  0.192901	  0.561868	
9.81288	  0.855531	  0.196819	  0.570161	
9.84614	  0.868760	  0.199783	  0.577798	
9.87941	  0.882859	  0.201301	  0.583941	
9.91267	  0.885277	  0.201156	  0.587384	
9.94594	  0.882877	  0.199514	  0.586342	
9.9792	  0.883102	  0.196000	  0.580334	
10.0125	  0.885238	  0.189884	  0.571939	
10.0457	  0.877043	  0.181328	  0.565733	
10.079	  0.860787	  0.171984	  0.564905	
10.1123	  0.851323	  0.162766	  0.569722	
10.1455	  0.854875	  0.154331	  0.582528	
10.1788	  0.863086	  0.148068	  0.602018	
10.212	  0.865306	  0.144774	  0.624995	
10.2453	  0.869335	  0.144681	  0.646363	
10.2786	  0.882219	  0.147754	  0.660454	
10.3118	  0.901858	  0.153205	  0.664499	
10.3451	  0.912626	  0.159660	  0.657086	
10.3784	  0.908496	  0.166283	  0.637839	
10.4116	  0.904725	  0.172189	  0.609231	
10.4449	  0.910227	  0.176397	  0.574860	
10.4782	  0.917521	  0.178486	  0.544726	
10.5114	  0.906288	  0.178739	  0.524843	
10.5447	  0.880682	  0.177732	  0.516818	
10.578	  0.861555	  0.176616	  0.521621	
10.6112	  0.858561	  0.176383	  0.536680	
10.6445	  0.863714	  0.177499	  0.559397	
10.6777	  0.862830	  0.179900	  0.586250	
10.711	  0.863942	  0.182845	  0.613455	
10.7443	  0.880920	  0.185766	  0.637976	
10.7775	  0.910388	  0.187999	  0.658607	
10.8108	  0.936088	  0.188772	  0.672603	
10.8441	  0.945795	  0.187790	  0.680140	
10.8773	  0.949678	  0.185958	  0.682243	
10.9106	  0.954351	  0.184273	  0.675705	
10.9439	  0.959468	  0.183427	  0.660797	
10.9771	  0.955007	  0.183139	  0.639630	
11.0104	  0.941080	  0.182951	  0.613258	
11.0436	  0.928967	  0.183475	  0.584128	
11.0769	  0.924713	  0.184889	  0.554075	
11.1102	  0.921483	  0.186509	  0.524415	
11.1434	  0.903825	  0.188025	  0.496730	
11.1767	  0.876956	  0.189016	  0.468587	
11.21	  0.853216	  0.189161	  0.436517	
11.2432	  0.838101	  0.188698	  0.402210	
11.2765	  0.819348	  0.187887	  0.368229	
11.3098	  0.790223	  0.186031	  0.336592	
11.343	  0.766929	  0.182051	  0.308917	
11.3763	  0.760625	  0.175956	  0.287445	
11.4096	  0.768439	  0.168677	  0.270614	
11.4428	  0.771637	  0.161212	  0.255187	
11.4761	  0.749771	  0.154896	  0.238396	
11.5093	  0.708329	  0.151115	  0.220313	
11.5426	  0.665259	  0.149854	  0.203120	
11.5759	  0.630689	  0.150117	  0.186448	
11.6091	  0.611917	  0.151477	  0.170890	
11.6424	  0.615928	  0.153511	  0.157241	
11.6757	  0.643209	  0.154905	  0.146950	
11.7089	  0.683730	  0.154303	  0.140332	
11.7422	  0.715430	  0.151707	  0.136833	
11.7755	  0.730730	  0.148110	  0.136394	
11.8087	  0.745745	  0.144803	  0.138160	
11.842	  0.768237	  0.142612	  0.139680	
11.8752	  0.792179	  0.141919	  0.138950	
11.9085	  0.804091	  0.142632	  0.135643	
11.9418	  0.789705	  0.144276	  0.129124	
11.975	  0.740249	  0.145921	  0.120580	
12.0083	  0.668318	  0.146928	  0.111846	
12.0416	  0.583028	  0.146995	  0.104070	
12.0748	  0.493304	  0.146225	  0.097387	
12.1081	  0.413270	  0.144981	  0.092143	
12.1414	  0.350880	  0.143531	  0.088262	
12.1746	  0.307594	  0.142160	  0.085506	
12.2079	  0.279426	  0.141158	  0.083949	
12.2412	  0.263125	  0.140861	  0.083961	
12.2744	  0.260058	  0.141595	  0.085103	
12.3077	  0.269133	  0.142890	  0.086897	
12.3409	  0.285972	  0.143969	  0.089333	
12.3742	  0.302549	  0.145077	  0.091528	
12.4075	  0.310809	  0.146685	  0.092754	
12.4407	  0.312987	  0.149047	  0.093294	
12.474	  0.314835	  0.151640	  0.093872	
12.5073	  0.319048	  0.153551	  0.094198	
12.5405	  0.323545	  0.153757	  0.093619	
12.5738	  0.324081	  0.152676	  0.092871	
12.6071	  0.323354	  0.151104	  0.092443	
12.6403	  0.326038	  0.149029	  0.091684	
12.6736	  0.331626	  0.146274	  0.090362	
12.7068	  0.335003	  0.142664	  0.088551	
12.7401	  0.334782	  0.138664	  0.085676	
12.7734	  0.333933	  0.134894	  0.082012	
12.8066	  0.335801	  0.131857	  0.078807	
12.8399	  0.340960	  0.130004	  0.076698	
12.8732	  0.345471	  0.129708	  0.075369	
12.9064	  0.345549	  0.131463	  0.073970	
12.9397	  0.342938	  0.135376	  0.072605	
12.973	  0.339716	  0.140837	  0.071488	
13.0062	  0.336784	  0.146587	  0.070552	
13.0395	  0.330481	  0.151367	  0.069635	
13.0728	  0.321182	  0.154288	  0.069491	
13.106	  0.314926	  0.155214	  0.070348	
13.1393	  0.314507	  0.154049	  0.071318	
13.1725	  0.317320	  0.151354	  0.071173	
13.2058	  0.318861	  0.148101	  0.070206	
13.2391	  0.315950	  0.144972	  0.068933	
13.2723	  0.312363	  0.142126	  0.067172	
13.3056	  0.311895	  0.139928	  0.064584	
13.3389	  0.313697	  0.139153	  0.061888	
13.3721	  0.314214	  0.140227	  0.059750	
13.4054	  0.310605	  0.143061	  0.058120	
13.4387	  0.303275	  0.147422	  0.056383	
